<?xml version="1.0" standalone="no"?>
<!DOCTYPE svg PUBLIC "-//W3C//DTD SVG 20010904//EN"
 "http://www.w3.org/TR/2001/REC-SVG-20010904/DTD/svg10.dtd">
<svg version="1.0" xmlns="http://www.w3.org/2000/svg"
 width="512.000000pt" height="512.000000pt" viewBox="0 0 512.000000 512.000000"
 preserveAspectRatio="xMidYMid meet">
<metadata>
Created by potrace 1.11, written by Peter Selinger 2001-2013
</metadata>
<g transform="translate(0.000000,512.000000) scale(0.100000,-0.100000)"
fill="#000000" stroke="none">
<path d="M779 4961 c-153 -154 -171 -178 -171 -225 0 -45 12 -63 99 -151 89
-91 150 -198 168 -294 3 -14 7 -37 10 -51 12 -57 17 -126 16 -208 -1 -48 -3
-312 -4 -586 l-3 -499 -27 -22 c-25 -23 -31 -23 -295 -24 -285 -2 -309 -4
-357 -27 -70 -34 -87 -98 -77 -304 7 -146 7 -670 1 -965 -4 -158 -3 -161 23
-205 30 -51 53 -67 118 -78 25 -4 389 -7 810 -7 750 1 766 1 811 22 78 35 84
58 82 313 -4 362 -3 772 1 825 2 28 5 103 6 167 2 169 -27 225 -127 249 -21 5
-154 9 -295 9 -142 0 -269 5 -282 10 -49 18 -49 22 -48 545 0 269 1 496 1 504
1 10 6 8 19 -6 9 -11 42 -49 72 -83 30 -35 71 -82 91 -104 52 -59 264 -300
329 -375 30 -35 64 -73 75 -85 101 -112 150 -172 149 -183 -1 -7 2 -11 6 -8 4
3 37 -28 71 -67 35 -40 78 -89 95 -108 17 -19 86 -98 154 -175 67 -77 150
-171 184 -209 33 -38 60 -75 60 -83 -1 -7 2 -11 6 -8 5 3 41 -32 82 -78 183
-207 181 -203 124 -279 -53 -69 -74 -112 -90 -182 -19 -81 -21 -145 -12 -381
9 -207 20 -252 71 -297 58 -51 102 -59 322 -60 161 -1 208 -4 219 -15 16 -17
18 -180 1 -200 -7 -10 -164 -13 -721 -13 -657 0 -714 -1 -745 -18 -23 -11 -38
-28 -45 -49 -7 -22 -10 -173 -8 -445 l2 -413 1614 0 c888 0 1617 3 1620 6 12
11 7 836 -5 861 -21 48 -31 49 -363 49 -171 0 -318 4 -325 9 -19 11 -25 194
-8 209 7 5 109 11 227 13 201 3 218 5 263 27 59 29 92 71 110 139 14 55 14
120 2 362 -9 184 -9 569 -1 961 7 298 7 307 -15 364 -14 37 -37 73 -64 99 -76
74 -72 73 -590 72 -253 -1 -471 -5 -484 -9 -58 -16 -114 -53 -153 -99 -139
-165 -134 -164 -284 -32 -37 33 -72 64 -78 69 -6 6 -81 71 -166 145 -85 74
-173 151 -195 171 -22 20 -134 118 -250 219 -115 100 -217 190 -225 199 -8 9
-24 23 -36 31 -11 8 -50 41 -85 72 -35 31 -75 66 -89 78 -14 12 -39 34 -55 48
-17 15 -64 56 -105 92 -41 36 -77 67 -80 70 -3 3 -75 66 -160 140 -138 120
-198 172 -234 205 -6 6 -45 39 -86 75 -41 36 -77 67 -80 70 -3 3 -36 32 -75
65 -38 33 -72 63 -75 66 -3 3 -43 39 -90 80 -47 40 -96 84 -110 96 -14 13 -27
23 -30 24 -3 0 -23 2 -46 3 -39 2 -43 -1 -165 -123z m3614 -2190 c9 -1 25 -14
35 -30 16 -26 17 -65 16 -447 -1 -231 -2 -422 -3 -426 0 -5 -10 -17 -21 -28
-19 -19 -34 -20 -595 -20 -339 0 -585 4 -599 10 -25 9 -43 49 -37 80 3 13 28
49 82 115 9 11 74 92 145 180 70 88 130 162 133 165 3 3 35 40 70 84 75 93 80
100 160 193 95 112 102 115 245 121 66 2 122 5 123 6 1 1 216 -1 246 -3z
m-2754 -221 c17 -9 18 -31 17 -340 -1 -273 -3 -332 -15 -339 -15 -10 -36 -4
-61 15 -20 16 -94 77 -145 119 -22 18 -134 111 -250 207 -115 95 -242 199
-281 231 -72 58 -91 86 -71 106 14 14 780 15 806 1z m-1081 -242 c21 -18 51
-42 65 -53 224 -176 667 -552 667 -565 0 -39 -15 -40 -421 -38 l-394 3 -3 330
c-2 301 -1 331 15 343 23 17 26 16 71 -20z"/>
</g>
</svg>
